<svg width="16" height="17" viewBox="0 0 16 17" fill="none" xmlns="http://www.w3.org/2000/svg">
<path fill-rule="evenodd" clip-rule="evenodd" d="M11 0.922852C9.8954 0.922852 9 1.81828 9 2.92285V5.92285C9 7.02745 9.8954 7.92285 11 7.92285H14C15.1046 7.92285 16 7.02745 16 5.92285V2.92285C16 1.81828 15.1046 0.922852 14 0.922852H11ZM11 9.92285C9.8954 9.92285 9 10.8183 9 11.9229V14.9229C9 16.0275 9.8954 16.9229 11 16.9229H14C15.1046 16.9229 16 16.0275 16 14.9229V11.9229C16 10.8183 15.1046 9.92285 14 9.92285H11ZM0 11.9229C0 10.8183 0.89543 9.92285 2 9.92285H5C6.1046 9.92285 7 10.8183 7 11.9229V14.9229C7 16.0275 6.1046 16.9229 5 16.9229H2C0.89543 16.9229 0 16.0275 0 14.9229V11.9229ZM2 0.922852C0.89543 0.922852 0 1.81828 0 2.92285V5.92285C0 7.02745 0.89543 7.92285 2 7.92285H5C6.1046 7.92285 7 7.02745 7 5.92285V2.92285C7 1.81828 6.1046 0.922852 5 0.922852H2Z" fill="black"/>
</svg>
