<svg width="21" height="22" viewBox="0 0 21 22" fill="none" xmlns="http://www.w3.org/2000/svg">
<path d="M3.07617 21.5H9.92578L9.92578 14.0352H7.46484V11.5742H9.92578V8.49805C9.92578 6.80183 11.3057 5.42187 13.002 5.42187L16.0781 5.42187V7.88281L13.6172 7.88281C12.9387 7.88281 12.3867 8.43476 12.3867 9.11328V11.5742H15.9671L15.5569 14.0352H12.3867L12.3867 21.5H17.9238C19.62 21.5 21 20.12 21 18.4238L21 3.57617C21 1.87995 19.62 0.5 17.9238 0.5L3.07617 0.5C1.37995 0.5 0 1.87995 0 3.57617L0 18.4238C0 20.12 1.37995 21.5 3.07617 21.5ZM1.23047 3.57617C1.23047 2.55847 2.05847 1.73047 3.07617 1.73047L17.9238 1.73047C18.9415 1.73047 19.7695 2.55847 19.7695 3.57617L19.7695 18.4238C19.7695 19.4415 18.9415 20.2695 17.9238 20.2695H13.6172L13.6172 15.2656L16.5993 15.2656L17.4196 10.3437L13.6172 10.3437V9.11328L17.3086 9.11328V4.19141L13.002 4.19141C10.6272 4.19141 8.69531 6.12331 8.69531 8.49805V10.3437H6.23438L6.23438 15.2656H8.69531L8.69531 20.2695H3.07617C2.05847 20.2695 1.23047 19.4415 1.23047 18.4238L1.23047 3.57617Z" fill="white" fill-opacity="0.7"/>
</svg>
