<svg width="21" height="22" viewBox="0 0 21 22" fill="none" xmlns="http://www.w3.org/2000/svg">
<path d="M3.07617 21.5L17.9238 21.5C19.62 21.5 21 20.12 21 18.4238L21 3.57617C21 1.87995 19.62 0.5 17.9238 0.5L3.07617 0.5C1.37995 0.5 0 1.87995 0 3.57617L0 18.4238C0 20.12 1.37995 21.5 3.07617 21.5ZM1.23047 3.57617C1.23047 2.55847 2.05847 1.73047 3.07617 1.73047L17.9238 1.73047C18.9415 1.73047 19.7695 2.55847 19.7695 3.57617L19.7695 18.4238C19.7695 19.4415 18.9415 20.2695 17.9238 20.2695L3.07617 20.2695C2.05847 20.2695 1.23047 19.4415 1.23047 18.4238L1.23047 3.57617Z" fill="white" fill-opacity="0.7"/>
<path d="M10.498 16.5371C13.5511 16.5371 16.0352 14.0531 16.0352 11C16.0352 7.9469 13.5511 5.46289 10.498 5.46289C7.44495 5.46289 4.96094 7.9469 4.96094 11C4.96094 14.0531 7.44495 16.5371 10.498 16.5371ZM10.498 6.69336C12.8728 6.69336 14.8047 8.62526 14.8047 11C14.8047 13.3747 12.8728 15.3066 10.498 15.3066C8.12331 15.3066 6.19141 13.3747 6.19141 11C6.19141 8.62526 8.12331 6.69336 10.498 6.69336Z" fill="white" fill-opacity="0.7"/>
<path d="M16.6543 6.69336C17.672 6.69336 18.5 5.86536 18.5 4.84766C18.5 3.82996 17.672 3.00195 16.6543 3.00195C15.6366 3.00195 14.8086 3.82996 14.8086 4.84766C14.8086 5.86536 15.6366 6.69336 16.6543 6.69336ZM16.6543 4.23242C16.9935 4.23242 17.2695 4.50848 17.2695 4.84766C17.2695 5.18684 16.9935 5.46289 16.6543 5.46289C16.3151 5.46289 16.0391 5.18684 16.0391 4.84766C16.0391 4.50848 16.3151 4.23242 16.6543 4.23242Z" fill="white" fill-opacity="0.7"/>
</svg>
