<svg width="30" height="26" viewBox="0 0 30 26" fill="none" xmlns="http://www.w3.org/2000/svg">
<path d="M4.30642 14.7026L14.4762 24.256C14.725 24.4898 14.8494 24.6067 15.0013 24.6067C15.1532 24.6067 15.2776 24.4898 15.5264 24.256L25.6962 14.7027C25.9874 14.4291 26.133 14.2923 26.253 14.1677C28.5406 11.7921 28.8282 8.13024 26.9396 5.42661C26.8406 5.28479 26.7181 5.12695 26.4732 4.81128L26.035 4.24642C23.2467 0.65267 17.6499 1.25537 15.6907 5.36035C15.414 5.94021 14.5886 5.94021 14.3119 5.36036C12.3527 1.25537 6.75591 0.652666 3.96766 4.24641L3.52941 4.81128C3.28448 5.12695 3.16202 5.28479 3.06296 5.42661C1.1744 8.13024 1.46206 11.7921 3.74962 14.1677C3.86962 14.2923 4.01522 14.4291 4.30642 14.7026Z" stroke="#1F2348" stroke-width="2.30097"/>
</svg>
