<svg width="12" height="16" viewBox="0 0 12 16" fill="none" xmlns="http://www.w3.org/2000/svg">
<path d="M6 8.15287C6.4125 8.15287 6.76575 7.99307 7.05975 7.67348C7.35325 7.35443 7.5 6.9707 7.5 6.52229C7.5 6.07389 7.35325 5.68989 7.05975 5.37029C6.76575 5.05124 6.4125 4.89172 6 4.89172C5.5875 4.89172 5.2345 5.05124 4.941 5.37029C4.647 5.68989 4.5 6.07389 4.5 6.52229C4.5 6.9707 4.647 7.35443 4.941 7.67348C5.2345 7.99307 5.5875 8.15287 6 8.15287ZM6 16C5.9 16 5.8 15.9796 5.7 15.9389C5.6 15.8981 5.5125 15.8437 5.4375 15.7758C3.6125 14.0229 2.25 12.3959 1.35 10.8947C0.45 9.39292 0 7.98981 0 6.68535C0 4.64713 0.60325 3.02335 1.80975 1.81401C3.01575 0.604671 4.4125 0 6 0C7.5875 0 8.98425 0.604671 10.1903 1.81401C11.3967 3.02335 12 4.64713 12 6.68535C12 7.98981 11.55 9.39292 10.65 10.8947C9.75 12.3959 8.3875 14.0229 6.5625 15.7758C6.4875 15.8437 6.4 15.8981 6.3 15.9389C6.2 15.9796 6.1 16 6 16Z" fill="black"/>
</svg>
