<svg width="239" height="45" viewBox="0 0 239 45" fill="none" xmlns="http://www.w3.org/2000/svg">
<path d="M13.398 35.552C22.598 35.552 27.06 30.952 27.06 25.57C27.06 13.748 8.338 17.842 8.338 11.908C8.338 9.884 10.04 8.228 14.456 8.228C17.308 8.228 20.39 9.056 23.38 10.758L25.68 5.1C22.69 3.214 18.55 2.248 14.502 2.248C5.348 2.248 0.932 6.802 0.932 12.276C0.932 24.236 19.654 20.096 19.654 26.122C19.654 28.1 17.86 29.572 13.444 29.572C9.58 29.572 5.532 28.192 2.818 26.214L0.288 31.826C3.14 34.034 8.292 35.552 13.398 35.552ZM44.986 28.744C44.204 29.342 43.146 29.664 42.088 29.664C40.156 29.664 39.006 28.514 39.006 26.398V16.324H45.17V10.804H39.006V4.778H31.83V10.804H28.012V16.324H31.83V26.49C31.83 32.378 35.234 35.368 41.076 35.368C43.284 35.368 45.446 34.862 46.918 33.804L44.986 28.744ZM68.0122 10.252V22.488C68.0122 27.042 65.6202 29.158 62.3082 29.158C59.1342 29.158 57.2942 27.318 57.2942 23.178V10.252H50.1182V24.236C50.1182 31.872 54.4882 35.368 60.6982 35.368C63.7342 35.368 66.4942 34.218 68.3802 32.056V35H75.1882V10.252H68.0122ZM99.1783 0.867998V12.874C97.3843 10.85 94.8083 9.884 91.7723 9.884C84.7803 9.884 79.3983 14.852 79.3983 22.626C79.3983 30.4 84.7803 35.368 91.7723 35.368C95.0843 35.368 97.7063 34.31 99.5003 32.148V35H106.354V0.867998H99.1783ZM93.0143 29.48C89.4263 29.48 86.6663 26.904 86.6663 22.626C86.6663 18.348 89.4263 15.772 93.0143 15.772C96.5563 15.772 99.3163 18.348 99.3163 22.626C99.3163 26.904 96.5563 29.48 93.0143 29.48ZM129.97 10.252L122.978 27.042L116.032 10.252H108.626L119.344 35.184L119.252 35.414C118.286 37.622 117.182 38.496 115.204 38.496C113.778 38.496 112.26 37.898 111.156 36.932L108.534 42.038C110.144 43.464 112.904 44.292 115.434 44.292C119.896 44.292 123.3 42.498 125.692 36.518L136.87 10.252H129.97ZM181.152 2.8L173.654 25.616L166.294 2.8H159.394L151.804 25.432L144.536 2.8H136.808L147.388 35H155.346L162.66 13.196L169.744 35H177.748L188.282 2.8H181.152ZM213.646 22.718C213.646 14.76 208.034 9.884 200.766 9.884C193.222 9.884 187.564 15.22 187.564 22.626C187.564 29.986 193.13 35.368 201.686 35.368C206.148 35.368 209.598 33.988 211.898 31.366L208.08 27.226C206.378 28.836 204.492 29.618 201.87 29.618C198.098 29.618 195.476 27.732 194.786 24.65H213.508C213.554 24.052 213.646 23.27 213.646 22.718ZM200.812 15.312C204.032 15.312 206.378 17.336 206.884 20.464H194.694C195.2 17.29 197.546 15.312 200.812 15.312ZM217.734 35H224.91V0.867998H217.734V35ZM230.88 35H238.056V0.867998H230.88V35Z" fill="white" fill-opacity="0.7"/>
</svg>
