<svg width="160" height="30" viewBox="0 0 160 30" fill="none" xmlns="http://www.w3.org/2000/svg">
<path d="M9.39 23.36C7.71 23.36 6.1 23.14 4.56 22.7C3.02 22.24 1.78 21.65 0.84 20.93L2.49 17.27C3.39 17.91 4.45 18.44 5.67 18.86C6.91 19.26 8.16 19.46 9.42 19.46C10.38 19.46 11.15 19.37 11.73 19.19C12.33 18.99 12.77 18.72 13.05 18.38C13.33 18.04 13.47 17.65 13.47 17.21C13.47 16.65 13.25 16.21 12.81 15.89C12.37 15.55 11.79 15.28 11.07 15.08C10.35 14.86 9.55 14.66 8.67 14.48C7.81 14.28 6.94 14.04 6.06 13.76C5.2 13.48 4.41 13.12 3.69 12.68C2.97 12.24 2.38 11.66 1.92 10.94C1.48 10.22 1.26 9.3 1.26 8.18C1.26 6.98 1.58 5.89 2.22 4.91C2.88 3.91 3.86 3.12 5.16 2.54C6.48 1.94 8.13 1.64 10.11 1.64C11.43 1.64 12.73 1.8 14.01 2.12C15.29 2.42 16.42 2.88 17.4 3.5L15.9 7.19C14.92 6.63 13.94 6.22 12.96 5.96C11.98 5.68 11.02 5.54 10.08 5.54C9.14 5.54 8.37 5.65 7.77 5.87C7.17 6.09 6.74 6.38 6.48 6.74C6.22 7.08 6.09 7.48 6.09 7.94C6.09 8.48 6.31 8.92 6.75 9.26C7.19 9.58 7.77 9.84 8.49 10.04C9.21 10.24 10 10.44 10.86 10.64C11.74 10.84 12.61 11.07 13.47 11.33C14.35 11.59 15.15 11.94 15.87 12.38C16.59 12.82 17.17 13.4 17.61 14.12C18.07 14.84 18.3 15.75 18.3 16.85C18.3 18.03 17.97 19.11 17.31 20.09C16.65 21.07 15.66 21.86 14.34 22.46C13.04 23.06 11.39 23.36 9.39 23.36ZM27.8909 23.24C25.9909 23.24 24.5109 22.76 23.4509 21.8C22.3909 20.82 21.8609 19.37 21.8609 17.45V3.29H26.5409V17.39C26.5409 18.07 26.7209 18.6 27.0809 18.98C27.4409 19.34 27.9309 19.52 28.5509 19.52C29.2909 19.52 29.9209 19.32 30.4409 18.92L31.7009 22.22C31.2209 22.56 30.6409 22.82 29.9609 23C29.3009 23.16 28.6109 23.24 27.8909 23.24ZM19.3709 10.82V7.22H30.5609V10.82H19.3709ZM41.138 23.24C39.798 23.24 38.598 22.98 37.538 22.46C36.498 21.94 35.688 21.15 35.108 20.09C34.528 19.01 34.238 17.64 34.238 15.98V6.86H38.918V15.29C38.918 16.63 39.198 17.62 39.758 18.26C40.338 18.88 41.148 19.19 42.188 19.19C42.908 19.19 43.548 19.04 44.108 18.74C44.668 18.42 45.108 17.94 45.428 17.3C45.748 16.64 45.908 15.82 45.908 14.84V6.86H50.588V23H46.148V18.56L46.958 19.85C46.418 20.97 45.618 21.82 44.558 22.4C43.518 22.96 42.378 23.24 41.138 23.24ZM61.8537 23.24C60.3337 23.24 58.9637 22.9 57.7437 22.22C56.5237 21.52 55.5537 20.55 54.8337 19.31C54.1337 18.07 53.7837 16.61 53.7837 14.93C53.7837 13.23 54.1337 11.76 54.8337 10.52C55.5537 9.28 56.5237 8.32 57.7437 7.64C58.9637 6.96 60.3337 6.62 61.8537 6.62C63.2137 6.62 64.4037 6.92 65.4237 7.52C66.4437 8.12 67.2337 9.03 67.7937 10.25C68.3537 11.47 68.6337 13.03 68.6337 14.93C68.6337 16.81 68.3637 18.37 67.8237 19.61C67.2837 20.83 66.5037 21.74 65.4837 22.34C64.4837 22.94 63.2737 23.24 61.8537 23.24ZM62.6637 19.4C63.4237 19.4 64.1137 19.22 64.7337 18.86C65.3537 18.5 65.8437 17.99 66.2037 17.33C66.5837 16.65 66.7737 15.85 66.7737 14.93C66.7737 13.99 66.5837 13.19 66.2037 12.53C65.8437 11.87 65.3537 11.36 64.7337 11C64.1137 10.64 63.4237 10.46 62.6637 10.46C61.8837 10.46 61.1837 10.64 60.5637 11C59.9437 11.36 59.4437 11.87 59.0637 12.53C58.7037 13.19 58.5237 13.99 58.5237 14.93C58.5237 15.85 58.7037 16.65 59.0637 17.33C59.4437 17.99 59.9437 18.5 60.5637 18.86C61.1837 19.22 61.8837 19.4 62.6637 19.4ZM66.8937 23V19.7L66.9837 14.9L66.6837 10.13V0.739999H71.3637V23H66.8937ZM77.7352 29.06C76.8952 29.06 76.0652 28.93 75.2452 28.67C74.4252 28.41 73.7552 28.05 73.2352 27.59L74.9452 24.26C75.3052 24.58 75.7152 24.83 76.1752 25.01C76.6552 25.19 77.1252 25.28 77.5852 25.28C78.2452 25.28 78.7652 25.12 79.1452 24.8C79.5452 24.5 79.9052 23.99 80.2252 23.27L81.0652 21.29L81.4252 20.78L87.2152 6.86H91.7152L84.4252 23.99C83.9052 25.29 83.3052 26.31 82.6252 27.05C81.9652 27.79 81.2252 28.31 80.4052 28.61C79.6052 28.91 78.7152 29.06 77.7352 29.06ZM80.4952 23.63L73.2952 6.86H78.1252L83.7052 20.36L80.4952 23.63ZM98.9948 23L92.1248 2H97.1648L103.135 20.6H100.615L106.855 2H111.355L117.355 20.6H114.925L121.045 2H125.695L118.825 23H113.605L108.295 6.68H109.675L104.215 23H98.9948ZM134.887 23.24C133.047 23.24 131.427 22.88 130.027 22.16C128.647 21.44 127.577 20.46 126.817 19.22C126.057 17.96 125.677 16.53 125.677 14.93C125.677 13.31 126.047 11.88 126.787 10.64C127.547 9.38 128.577 8.4 129.877 7.7C131.177 6.98 132.647 6.62 134.287 6.62C135.867 6.62 137.287 6.96 138.547 7.64C139.827 8.3 140.837 9.26 141.577 10.52C142.317 11.76 142.687 13.25 142.687 14.99C142.687 15.17 142.677 15.38 142.657 15.62C142.637 15.84 142.617 16.05 142.597 16.25H129.487V13.52H140.137L138.337 14.33C138.337 13.49 138.167 12.76 137.827 12.14C137.487 11.52 137.017 11.04 136.417 10.7C135.817 10.34 135.117 10.16 134.317 10.16C133.517 10.16 132.807 10.34 132.187 10.7C131.587 11.04 131.117 11.53 130.777 12.17C130.437 12.79 130.267 13.53 130.267 14.39V15.11C130.267 15.99 130.457 16.77 130.837 17.45C131.237 18.11 131.787 18.62 132.487 18.98C133.207 19.32 134.047 19.49 135.007 19.49C135.867 19.49 136.617 19.36 137.257 19.1C137.917 18.84 138.517 18.45 139.057 17.93L141.547 20.63C140.807 21.47 139.877 22.12 138.757 22.58C137.637 23.02 136.347 23.24 134.887 23.24ZM145.803 23V0.739999H150.483V23H145.803ZM154.826 23V0.739999H159.506V23H154.826Z" fill="#1F2348"/>
</svg>
