<svg width="17" height="18" viewBox="0 0 17 18" fill="none" xmlns="http://www.w3.org/2000/svg">
<path fill-rule="evenodd" clip-rule="evenodd" d="M1.82145 7.11104C1.82145 5.85864 2.30121 4.65754 3.15518 3.77196C4.00916 2.88638 5.1674 2.38887 6.3751 2.38887C7.5828 2.38887 8.74104 2.88638 9.59501 3.77196C10.449 4.65754 10.9287 5.85864 10.9287 7.11104C10.9287 8.36343 10.449 9.56454 9.59501 10.4501C8.74104 11.3357 7.5828 11.8332 6.3751 11.8332C5.1674 11.8332 4.00916 11.3357 3.15518 10.4501C2.30121 9.56454 1.82145 8.36343 1.82145 7.11104ZM6.3751 0.5C5.36534 0.500002 4.37002 0.74874 3.4711 1.22573C2.57219 1.70273 1.79539 2.39433 1.20468 3.24359C0.61397 4.09284 0.226244 5.07547 0.0734285 6.11054C-0.0793865 7.14561 0.00708156 8.20352 0.325712 9.19715C0.644343 10.1908 1.18602 11.0917 1.90614 11.8258C2.62626 12.5598 3.50423 13.106 4.46774 13.4192C5.43125 13.7325 6.45274 13.804 7.44809 13.6278C8.44345 13.4515 9.3842 13.0326 10.1929 12.4055L14.8376 17.2231C15.0084 17.4003 15.24 17.4999 15.4816 17.5C15.7232 17.5001 15.9549 17.4007 16.1258 17.2236C16.2967 17.0465 16.3928 16.8062 16.3929 16.5557C16.3929 16.3052 16.2971 16.0649 16.1263 15.8877L11.4816 11.071C12.1904 10.0884 12.6215 8.9205 12.7266 7.69816C12.8317 6.47582 12.6067 5.24727 12.0766 4.15006C11.5466 3.05284 10.7325 2.13026 9.72558 1.48561C8.71861 0.840966 7.55849 0.499692 6.3751 0.5Z" fill="#DCDCDC"/>
</svg>
