<svg width="24" height="24" viewBox="0 0 24 24" fill="none" xmlns="http://www.w3.org/2000/svg">
<path d="M24 4.62333C22.4903 4.69291 22.5233 4.68724 22.3526 4.70152L23.2467 2.14812C23.2467 2.14812 20.4558 3.17479 19.7483 3.35844C17.8901 1.68834 15.1282 1.61455 13.1536 2.82817C11.5366 3.82225 10.6686 5.52934 10.9581 7.52464C7.81109 7.08793 5.15954 5.59617 3.0661 3.0814L2.40399 2.28618L1.90924 3.19475C1.28394 4.34282 1.07629 5.6555 1.3244 6.89091C1.42621 7.39775 1.59924 7.88115 1.83893 8.33378L1.27093 8.11369L1.20355 9.06273C1.13525 10.0268 1.45624 11.1521 2.06232 12.0728C2.23297 12.3321 2.4527 12.6168 2.7312 12.8977L2.43768 12.8526L2.79584 13.9401C3.2666 15.3689 4.24438 16.4743 5.5133 17.0888C4.24603 17.6266 3.22229 17.9697 1.53955 18.5232L0 19.0293L1.422 19.8068C1.96417 20.1033 3.88 21.0933 5.77295 21.3903C9.98071 22.0502 14.7182 21.5128 17.9075 18.6404C20.5939 16.2211 21.4753 12.7796 21.2922 9.19823C21.2646 8.65605 21.4131 8.13859 21.7104 7.74144C22.3061 6.94621 23.9963 4.62864 24 4.62333ZM20.586 6.89915C20.0922 7.55852 19.8448 8.40062 19.8891 9.27C20.0738 12.8825 19.0909 15.684 16.9675 17.5964C14.4869 19.8304 10.4859 20.7073 5.99066 20.0022C5.17657 19.8746 4.3352 19.5887 3.63885 19.3033C5.04968 18.8179 6.13916 18.3852 7.89862 17.5524L10.3548 16.3899L7.643 16.2163C6.34405 16.1332 5.26245 15.5036 4.59759 14.4816C4.95062 14.461 5.29101 14.4039 5.62994 14.3094L8.21631 13.5891L5.60834 12.9504C4.34106 12.6401 3.61871 11.8818 3.23584 11.3003C2.98444 10.9181 2.82019 10.5267 2.72168 10.1658C2.98315 10.2359 3.28802 10.2859 3.77966 10.3346L6.19354 10.5733L4.28101 9.0814C2.90295 8.00657 2.35071 6.39177 2.75555 4.8394C7.05633 9.30021 12.106 8.96495 12.6143 9.08287C12.5024 7.99614 12.4995 7.99357 12.4702 7.89012C11.8193 5.58903 13.2458 4.42064 13.8893 4.02513C15.2333 3.19914 17.3666 3.07463 18.8443 4.43547C19.1634 4.72917 19.595 4.84471 19.999 4.74437C20.3615 4.65428 20.6591 4.55888 20.9504 4.45506L20.3439 6.18687L21.1181 6.18742C20.972 6.38334 20.7967 6.6179 20.586 6.89915Z" fill="white" fill-opacity="0.7"/>
</svg>
