<svg width="22" height="22" viewBox="0 0 22 22" fill="none" xmlns="http://www.w3.org/2000/svg">
<g clip-path="url(#clip0_757_534)">
<path d="M5.32091 20.4301C7.02069 21.453 8.96419 21.9921 10.9611 21.9921C17.0121 21.9921 22 17.0544 22 10.996C22 4.9446 17.0191 0 10.9611 0C4.92143 0 0.0078888 4.93285 0.0078888 10.996C0.0078888 13.0195 0.54718 14.9778 1.56987 16.6789L0 22L5.32091 20.4301ZM1.29662 10.996C1.29662 5.64334 5.6321 1.28856 10.9611 1.28856C16.3374 1.28856 20.7114 5.64334 20.7114 10.996C20.7114 16.3488 16.3374 20.7034 10.9611 20.7034C9.11105 20.7034 7.31325 20.1794 5.76251 19.1877L5.51477 19.0294L1.9059 20.0943L2.97055 16.4852L2.81227 16.2377C1.82063 14.6866 1.29662 12.8742 1.29662 10.996V10.996Z" fill="white" fill-opacity="0.7"/>
<path d="M5.15045 8.98819C5.36328 10.1059 5.99506 12.2557 7.83449 14.0951C9.67392 15.9345 11.8237 16.5665 12.9416 16.7793C14.2216 17.023 16.0999 17.0598 17.0179 16.1418L17.5296 15.6301C17.788 15.3717 17.9303 15.0282 17.9303 14.6628C17.9303 14.2974 17.788 13.9539 17.5296 13.6956L15.4831 11.6491C15.2246 11.3906 14.8812 11.2484 14.5158 11.2484C14.1504 11.2484 13.807 11.3906 13.5485 11.6491L13.0369 12.1607C12.7244 12.4732 12.1344 12.4745 11.8195 12.1645L9.77815 10.0376C9.77513 10.0344 9.77211 10.0312 9.76892 10.0282C9.45589 9.71514 9.45589 9.20572 9.76892 8.89269L10.2805 8.38109C10.8153 7.84633 10.8153 6.98108 10.2805 6.44649L8.23396 4.39994C7.70071 3.86669 6.83295 3.86669 6.29953 4.39994L5.78793 4.9117V4.91153C5.05528 5.64435 4.81106 7.20633 5.15045 8.98819V8.98819ZM6.69917 5.82294C7.23628 5.29808 7.20758 5.28801 7.26683 5.28801C7.28714 5.28801 7.30745 5.29573 7.32289 5.31118C9.47938 7.47925 9.39278 7.35186 9.39278 7.41396C9.39278 7.43561 9.38489 7.45458 9.36961 7.47002L8.85785 7.98162C8.04295 8.79651 8.03976 10.1156 8.85264 10.9342L10.8952 13.0625C10.8984 13.0655 10.9014 13.0687 10.9046 13.0719C11.7193 13.8866 13.1307 13.8893 13.9481 13.0719L14.4597 12.5603C14.4906 12.5294 14.541 12.5294 14.5719 12.5603C16.7283 14.7282 16.6417 14.6008 16.6417 14.6629C16.6417 14.6847 16.6338 14.7035 16.6186 14.719L16.1068 15.2306C15.7562 15.5812 14.6393 15.791 13.1826 15.5136C12.2104 15.3283 10.3411 14.7794 8.74573 13.184C7.15034 11.5886 6.60149 9.71933 6.41635 8.74717C6.13873 7.29042 6.34854 6.1734 6.69917 5.82294V5.82294Z" fill="white" fill-opacity="0.7"/>
</g>
<defs>
<clipPath id="clip0_757_534">
<rect width="22" height="22" fill="white"/>
</clipPath>
</defs>
</svg>
